<svg width="8" height="12" viewBox="0 0 8 12" fill="none" xmlns="http://www.w3.org/2000/svg">
<path d="M1.1703 6.71L5.4103 10.95C5.50326 11.0437 5.61387 11.1181 5.73572 11.1689C5.85758 11.2197 5.98829 11.2458 6.1203 11.2458C6.25231 11.2458 6.38302 11.2197 6.50488 11.1689C6.62674 11.1181 6.73734 11.0437 6.8303 10.95C7.01655 10.7626 7.12109 10.5092 7.12109 10.245C7.12109 9.98081 7.01655 9.72736 6.8303 9.54L3.2903 6L6.8303 2.46C7.01655 2.27264 7.12109 2.01918 7.12109 1.755C7.12109 1.49081 7.01655 1.23736 6.8303 1.05C6.73686 0.957316 6.62605 0.883991 6.50421 0.834227C6.38237 0.784462 6.25191 0.759237 6.1203 0.759998C5.9887 0.759237 5.85823 0.784462 5.7364 0.834226C5.61456 0.883991 5.50374 0.957316 5.4103 1.05L1.1703 5.29C1.07657 5.38296 1.00218 5.49356 0.951411 5.61542C0.900642 5.73728 0.874504 5.86799 0.874504 6C0.874504 6.13201 0.900642 6.26272 0.951411 6.38457C1.00218 6.50643 1.07657 6.61703 1.1703 6.71Z" fill="#050510"/>
</svg>
