<svg width="20.000000" height="12.000000" viewBox="0 0 20 12" fill="none" xmlns="http://www.w3.org/2000/svg" xmlns:xlink="http://www.w3.org/1999/xlink">
	<path id="Vector" d="M1 0C0.802246 0 0.608887 0.0585938 0.444336 0.168457C0.280029 0.27832 0.151855 0.43457 0.0761719 0.617432C0.000488281 0.800049 -0.0192871 1.00122 0.0192871 1.19507C0.0578613 1.38916 0.153076 1.56714 0.292969 1.70703C0.432861 1.84692 0.61084 1.94214 0.804932 1.98071C0.998779 2.01929 1.19995 1.99951 1.38257 1.92383C1.56543 1.84814 1.72168 1.71997 1.83154 1.55566C1.94141 1.39111 2 1.19775 2 1C2 0.734863 1.89453 0.480469 1.70703 0.292969C1.51953 0.105469 1.26514 0 1 0ZM5 2L19 2C19.2651 2 19.5195 1.89453 19.707 1.70703C19.8945 1.51953 20 1.26514 20 1C20 0.734863 19.8945 0.480469 19.707 0.292969C19.5195 0.105469 19.2651 0 19 0L5 0C4.73486 0 4.48047 0.105469 4.29297 0.292969C4.10547 0.480469 4 0.734863 4 1C4 1.26514 4.10547 1.51953 4.29297 1.70703C4.48047 1.89453 4.73486 2 5 2ZM5 5C4.80225 5 4.60889 5.05859 4.44434 5.16846C4.28003 5.27832 4.15186 5.43457 4.07617 5.61743C4.00049 5.80005 3.98071 6.00122 4.01929 6.19507C4.05786 6.38916 4.15308 6.56714 4.29297 6.70703C4.43286 6.84692 4.61084 6.94214 4.80493 6.98071C4.99878 7.01929 5.19995 6.99951 5.38257 6.92383C5.56543 6.84814 5.72168 6.71997 5.83154 6.55566C5.94141 6.39111 6 6.19775 6 6C6 5.73486 5.89453 5.48047 5.70703 5.29297C5.51953 5.10547 5.26514 5 5 5ZM9 10C8.80225 10 8.60889 10.0586 8.44434 10.1685C8.28003 10.2783 8.15186 10.4346 8.07617 10.6174C8.00049 10.8 7.98071 11.0012 8.01929 11.1951C8.05786 11.3892 8.15308 11.5671 8.29297 11.707C8.43286 11.8469 8.61084 11.9421 8.80493 11.9807C8.99878 12.0193 9.19995 11.9995 9.38257 11.9238C9.56543 11.8481 9.72168 11.72 9.83154 11.5557C9.94141 11.3911 10 11.1978 10 11C10 10.7349 9.89453 10.4805 9.70703 10.293C9.51953 10.1055 9.26514 10 9 10ZM19 5L9 5C8.73486 5 8.48047 5.10547 8.29297 5.29297C8.10547 5.48047 8 5.73486 8 6C8 6.26514 8.10547 6.51953 8.29297 6.70703C8.48047 6.89453 8.73486 7 9 7L19 7C19.2651 7 19.5195 6.89453 19.707 6.70703C19.8945 6.51953 20 6.26514 20 6C20 5.73486 19.8945 5.48047 19.707 5.29297C19.5195 5.10547 19.2651 5 19 5ZM19 10L13 10C12.7349 10 12.4805 10.1055 12.293 10.293C12.1055 10.4805 12 10.7349 12 11C12 11.2651 12.1055 11.5195 12.293 11.707C12.4805 11.8945 12.7349 12 13 12L19 12C19.2651 12 19.5195 11.8945 19.707 11.707C19.8945 11.5195 20 11.2651 20 11C20 10.7349 19.8945 10.4805 19.707 10.293C19.5195 10.1055 19.2651 10 19 10Z" fill="#C3C3C6" fill-opacity="1.000000" fill-rule="nonzero"/>
</svg>
